<svg id="visual" viewBox="0 0 540 960" width="540" height="960" xmlns="http://www.w3.org/2000/svg" xmlns:xlink="http://www.w3.org/1999/xlink" version="1.1"><rect x="0" y="0" width="540" height="960" fill="#fff"></rect><path d="M0 533L11.3 511.7C22.7 490.3 45.3 447.7 67.8 462.8C90.3 478 112.7 551 135.2 583.7C157.7 616.3 180.3 608.7 202.8 588.5C225.3 568.3 247.7 535.7 270.2 507.7C292.7 479.7 315.3 456.3 337.8 477.2C360.3 498 382.7 563 405.2 565.8C427.7 568.7 450.3 509.3 472.8 494.2C495.3 479 517.7 508 528.8 522.5L540 537L540 961L528.8 961C517.7 961 495.3 961 472.8 961C450.3 961 427.7 961 405.2 961C382.7 961 360.3 961 337.8 961C315.3 961 292.7 961 270.2 961C247.7 961 225.3 961 202.8 961C180.3 961 157.7 961 135.2 961C112.7 961 90.3 961 67.8 961C45.3 961 22.7 961 11.3 961L0 961Z" fill="#c6c6c6"></path><path d="M0 430L11.3 458.2C22.7 486.3 45.3 542.7 67.8 559.5C90.3 576.3 112.7 553.7 135.2 534.5C157.7 515.3 180.3 499.7 202.8 505.5C225.3 511.3 247.7 538.7 270.2 563.7C292.7 588.7 315.3 611.3 337.8 597C360.3 582.7 382.7 531.3 405.2 541C427.7 550.7 450.3 621.3 472.8 609.2C495.3 597 517.7 502 528.8 454.5L540 407L540 961L528.8 961C517.7 961 495.3 961 472.8 961C450.3 961 427.7 961 405.2 961C382.7 961 360.3 961 337.8 961C315.3 961 292.7 961 270.2 961C247.7 961 225.3 961 202.8 961C180.3 961 157.7 961 135.2 961C112.7 961 90.3 961 67.8 961C45.3 961 22.7 961 11.3 961L0 961Z" fill="#ababab"></path><path d="M0 634L11.3 611.5C22.7 589 45.3 544 67.8 528.2C90.3 512.3 112.7 525.7 135.2 560.7C157.7 595.7 180.3 652.3 202.8 681.5C225.3 710.7 247.7 712.3 270.2 704.3C292.7 696.3 315.3 678.7 337.8 653C360.3 627.3 382.7 593.7 405.2 602.3C427.7 611 450.3 662 472.8 652.3C495.3 642.7 517.7 572.3 528.8 537.2L540 502L540 961L528.8 961C517.7 961 495.3 961 472.8 961C450.3 961 427.7 961 405.2 961C382.7 961 360.3 961 337.8 961C315.3 961 292.7 961 270.2 961C247.7 961 225.3 961 202.8 961C180.3 961 157.7 961 135.2 961C112.7 961 90.3 961 67.8 961C45.3 961 22.7 961 11.3 961L0 961Z" fill="#919191"></path><path d="M0 761L11.3 732.2C22.7 703.3 45.3 645.7 67.8 613.2C90.3 580.7 112.7 573.3 135.2 579.8C157.7 586.3 180.3 606.7 202.8 618.7C225.3 630.7 247.7 634.3 270.2 623.3C292.7 612.3 315.3 586.7 337.8 586.5C360.3 586.3 382.7 611.7 405.2 612.5C427.7 613.3 450.3 589.7 472.8 577.7C495.3 565.7 517.7 565.3 528.8 565.2L540 565L540 961L528.8 961C517.7 961 495.3 961 472.8 961C450.3 961 427.7 961 405.2 961C382.7 961 360.3 961 337.8 961C315.3 961 292.7 961 270.2 961C247.7 961 225.3 961 202.8 961C180.3 961 157.7 961 135.2 961C112.7 961 90.3 961 67.8 961C45.3 961 22.7 961 11.3 961L0 961Z" fill="#777777"></path><path d="M0 780L11.3 761.3C22.7 742.7 45.3 705.3 67.8 696.3C90.3 687.3 112.7 706.7 135.2 720.5C157.7 734.3 180.3 742.7 202.8 742.7C225.3 742.7 247.7 734.3 270.2 726.5C292.7 718.7 315.3 711.3 337.8 705.8C360.3 700.3 382.7 696.7 405.2 695.5C427.7 694.3 450.3 695.7 472.8 705.7C495.3 715.7 517.7 734.3 528.8 743.7L540 753L540 961L528.8 961C517.7 961 495.3 961 472.8 961C450.3 961 427.7 961 405.2 961C382.7 961 360.3 961 337.8 961C315.3 961 292.7 961 270.2 961C247.7 961 225.3 961 202.8 961C180.3 961 157.7 961 135.2 961C112.7 961 90.3 961 67.8 961C45.3 961 22.7 961 11.3 961L0 961Z" fill="#5e5e5e"></path><path d="M0 875L11.3 865.8C22.7 856.7 45.3 838.3 67.8 825.7C90.3 813 112.7 806 135.2 801.7C157.7 797.3 180.3 795.7 202.8 807C225.3 818.3 247.7 842.7 270.2 845.7C292.7 848.7 315.3 830.3 337.8 831C360.3 831.7 382.7 851.3 405.2 853.7C427.7 856 450.3 841 472.8 823.3C495.3 805.7 517.7 785.3 528.8 775.2L540 765L540 961L528.8 961C517.7 961 495.3 961 472.8 961C450.3 961 427.7 961 405.2 961C382.7 961 360.3 961 337.8 961C315.3 961 292.7 961 270.2 961C247.7 961 225.3 961 202.8 961C180.3 961 157.7 961 135.2 961C112.7 961 90.3 961 67.8 961C45.3 961 22.7 961 11.3 961L0 961Z" fill="#464646"></path><path d="M0 899L11.3 890.3C22.7 881.7 45.3 864.3 67.8 856.2C90.3 848 112.7 849 135.2 848C157.7 847 180.3 844 202.8 847.7C225.3 851.3 247.7 861.7 270.2 859.5C292.7 857.3 315.3 842.7 337.8 847.3C360.3 852 382.7 876 405.2 885.8C427.7 895.7 450.3 891.3 472.8 883.7C495.3 876 517.7 865 528.8 859.5L540 854L540 961L528.8 961C517.7 961 495.3 961 472.8 961C450.3 961 427.7 961 405.2 961C382.7 961 360.3 961 337.8 961C315.3 961 292.7 961 270.2 961C247.7 961 225.3 961 202.8 961C180.3 961 157.7 961 135.2 961C112.7 961 90.3 961 67.8 961C45.3 961 22.7 961 11.3 961L0 961Z" fill="#303030"></path></svg>