<svg id="visual" viewBox="0 0 960 540" width="960" height="540" xmlns="http://www.w3.org/2000/svg" xmlns:xlink="http://www.w3.org/1999/xlink" version="1.1"><rect x="0" y="0" width="960" height="540" fill="#fff"></rect><path d="M0 277L16 271.7C32 266.3 64 255.7 96 270.8C128 286 160 327 192 326.8C224 326.7 256 285.3 288 253.5C320 221.7 352 199.3 384 215.7C416 232 448 287 480 317.2C512 347.3 544 352.7 576 342.7C608 332.7 640 307.3 672 284.3C704 261.3 736 240.7 768 255C800 269.3 832 318.7 864 315.8C896 313 928 258 944 230.5L960 203L960 541L944 541C928 541 896 541 864 541C832 541 800 541 768 541C736 541 704 541 672 541C640 541 608 541 576 541C544 541 512 541 480 541C448 541 416 541 384 541C352 541 320 541 288 541C256 541 224 541 192 541C160 541 128 541 96 541C64 541 32 541 16 541L0 541Z" fill="#c6c6c6"></path><path d="M0 247L16 241.2C32 235.3 64 223.7 96 227.3C128 231 160 250 192 250.5C224 251 256 233 288 248.2C320 263.3 352 311.7 384 320C416 328.3 448 296.7 480 280.2C512 263.7 544 262.3 576 266.2C608 270 640 279 672 280.3C704 281.7 736 275.3 768 265.7C800 256 832 243 864 238.5C896 234 928 238 944 240L960 242L960 541L944 541C928 541 896 541 864 541C832 541 800 541 768 541C736 541 704 541 672 541C640 541 608 541 576 541C544 541 512 541 480 541C448 541 416 541 384 541C352 541 320 541 288 541C256 541 224 541 192 541C160 541 128 541 96 541C64 541 32 541 16 541L0 541Z" fill="#b2b2b2"></path><path d="M0 342L16 343C32 344 64 346 96 334.8C128 323.7 160 299.3 192 290.7C224 282 256 289 288 289.3C320 289.7 352 283.3 384 288.8C416 294.3 448 311.7 480 309.5C512 307.3 544 285.7 576 277.3C608 269 640 274 672 288C704 302 736 325 768 334.7C800 344.3 832 340.7 864 332C896 323.3 928 309.7 944 302.8L960 296L960 541L944 541C928 541 896 541 864 541C832 541 800 541 768 541C736 541 704 541 672 541C640 541 608 541 576 541C544 541 512 541 480 541C448 541 416 541 384 541C352 541 320 541 288 541C256 541 224 541 192 541C160 541 128 541 96 541C64 541 32 541 16 541L0 541Z" fill="#9e9e9e"></path><path d="M0 354L16 351.3C32 348.7 64 343.3 96 337.7C128 332 160 326 192 324.8C224 323.7 256 327.3 288 342.7C320 358 352 385 384 397C416 409 448 406 480 391.8C512 377.7 544 352.3 576 351.2C608 350 640 373 672 381C704 389 736 382 768 371.3C800 360.7 832 346.3 864 354.2C896 362 928 392 944 407L960 422L960 541L944 541C928 541 896 541 864 541C832 541 800 541 768 541C736 541 704 541 672 541C640 541 608 541 576 541C544 541 512 541 480 541C448 541 416 541 384 541C352 541 320 541 288 541C256 541 224 541 192 541C160 541 128 541 96 541C64 541 32 541 16 541L0 541Z" fill="#8a8a8a"></path><path d="M0 340L16 341C32 342 64 344 96 347C128 350 160 354 192 364.7C224 375.3 256 392.7 288 389C320 385.3 352 360.7 384 347.7C416 334.7 448 333.3 480 340C512 346.7 544 361.3 576 380C608 398.7 640 421.3 672 417.2C704 413 736 382 768 366.3C800 350.7 832 350.3 864 355.5C896 360.7 928 371.3 944 376.7L960 382L960 541L944 541C928 541 896 541 864 541C832 541 800 541 768 541C736 541 704 541 672 541C640 541 608 541 576 541C544 541 512 541 480 541C448 541 416 541 384 541C352 541 320 541 288 541C256 541 224 541 192 541C160 541 128 541 96 541C64 541 32 541 16 541L0 541Z" fill="#777777"></path><path d="M0 405L16 414.7C32 424.3 64 443.7 96 438.7C128 433.7 160 404.3 192 389.5C224 374.7 256 374.3 288 388.5C320 402.7 352 431.3 384 437.5C416 443.7 448 427.3 480 411.8C512 396.3 544 381.7 576 381C608 380.3 640 393.7 672 392.3C704 391 736 375 768 370.5C800 366 832 373 864 376.7C896 380.3 928 380.7 944 380.8L960 381L960 541L944 541C928 541 896 541 864 541C832 541 800 541 768 541C736 541 704 541 672 541C640 541 608 541 576 541C544 541 512 541 480 541C448 541 416 541 384 541C352 541 320 541 288 541C256 541 224 541 192 541C160 541 128 541 96 541C64 541 32 541 16 541L0 541Z" fill="#646464"></path><path d="M0 397L16 396.8C32 396.7 64 396.3 96 410C128 423.7 160 451.3 192 463.8C224 476.3 256 473.7 288 466.7C320 459.7 352 448.3 384 437.8C416 427.3 448 417.7 480 411.2C512 404.7 544 401.3 576 412.8C608 424.3 640 450.7 672 454.5C704 458.3 736 439.7 768 433.8C800 428 832 435 864 443.5C896 452 928 462 944 467L960 472L960 541L944 541C928 541 896 541 864 541C832 541 800 541 768 541C736 541 704 541 672 541C640 541 608 541 576 541C544 541 512 541 480 541C448 541 416 541 384 541C352 541 320 541 288 541C256 541 224 541 192 541C160 541 128 541 96 541C64 541 32 541 16 541L0 541Z" fill="#525252"></path><path d="M0 485L16 477.5C32 470 64 455 96 456.5C128 458 160 476 192 475.3C224 474.7 256 455.3 288 455.7C320 456 352 476 384 476.3C416 476.7 448 457.3 480 450.2C512 443 544 448 576 449.8C608 451.7 640 450.3 672 457.3C704 464.3 736 479.7 768 479.5C800 479.3 832 463.7 864 461.5C896 459.3 928 470.7 944 476.3L960 482L960 541L944 541C928 541 896 541 864 541C832 541 800 541 768 541C736 541 704 541 672 541C640 541 608 541 576 541C544 541 512 541 480 541C448 541 416 541 384 541C352 541 320 541 288 541C256 541 224 541 192 541C160 541 128 541 96 541C64 541 32 541 16 541L0 541Z" fill="#414141"></path><path d="M0 484L16 482.8C32 481.7 64 479.3 96 485.2C128 491 160 505 192 509.5C224 514 256 509 288 504.7C320 500.3 352 496.7 384 493.2C416 489.7 448 486.3 480 486.5C512 486.7 544 490.3 576 494.3C608 498.3 640 502.7 672 500.8C704 499 736 491 768 487.5C800 484 832 485 864 485.2C896 485.3 928 484.7 944 484.3L960 484L960 541L944 541C928 541 896 541 864 541C832 541 800 541 768 541C736 541 704 541 672 541C640 541 608 541 576 541C544 541 512 541 480 541C448 541 416 541 384 541C352 541 320 541 288 541C256 541 224 541 192 541C160 541 128 541 96 541C64 541 32 541 16 541L0 541Z" fill="#303030"></path></svg>